<svg width="11" height="16" viewBox="0 0 11 16" fill="none" xmlns="http://www.w3.org/2000/svg">
<path d="M5.65997 0.0871219V0.0950037C5.66798 0.134413 5.66798 0.181703 5.66798 0.228994V5.91175C5.65997 5.94328 5.63595 5.95116 5.61193 5.96693C5.44379 6.04574 5.28365 6.11668 5.1155 6.18762C4.8833 6.29008 4.6431 6.40042 4.4109 6.50289L3.57018 6.88121C3.33798 6.98367 3.10578 7.08614 2.88158 7.1886C2.60935 7.31471 2.32911 7.43294 2.05688 7.55904C1.82468 7.66151 1.59248 7.77185 1.35227 7.87431C1.1601 7.96101 0.96794 8.03983 0.783782 8.12653C0.767768 8.13441 0.751754 8.14229 0.73574 8.14229C0.727733 8.14229 0.727733 8.14229 0.719727 8.13441L0.935912 7.77973C1.35227 7.1019 1.76062 6.43195 2.17698 5.75412C2.61736 5.02899 3.06574 4.30387 3.50612 3.57875C3.91447 2.9088 4.33083 2.23885 4.73918 1.5689C5.03543 1.08023 5.3397 0.591555 5.63595 0.102885C5.64396 0.0871219 5.65196 0.0792401 5.65196 0.0634766H5.65997C5.65196 0.0713583 5.65997 0.0792401 5.65997 0.0871219Z" fill="#8C8C8C"/>
<path d="M10.5758 8.13477L10.5838 8.14266L9.40679 8.82837L5.70761 10.9801C5.6916 10.988 5.67558 10.9959 5.66758 11.0037C5.64355 11.0037 5.64355 10.9801 5.64355 10.9722V10.9013V6.03034C5.64355 6.0067 5.64355 5.97517 5.65156 5.95152C5.65957 5.92 5.68359 5.92788 5.70761 5.93576C5.8117 5.98305 5.9238 6.03034 6.02789 6.07763C6.34015 6.2195 6.65242 6.36138 6.96469 6.49537C7.23692 6.61359 7.50115 6.7397 7.77339 6.85793C8.04562 6.97615 8.31785 7.10226 8.59009 7.22049C8.82229 7.32295 9.06249 7.4333 9.29469 7.53576C9.52689 7.63822 9.7671 7.74857 9.9993 7.85103C10.1835 7.92985 10.3676 8.01655 10.5518 8.09537C10.5518 8.11901 10.5598 8.12689 10.5758 8.13477Z" fill="#141414"/>
<path d="M5.659 15.8978C5.659 15.9057 5.65099 15.9136 5.65099 15.9215H5.64298C5.64298 15.9057 5.62697 15.8978 5.61896 15.882C5.12253 15.1963 4.62611 14.5027 4.12968 13.817C3.62525 13.1155 3.11281 12.4062 2.60837 11.7047C2.11995 11.0269 1.62353 10.3412 1.13511 9.66333C1.007 9.48205 0.878888 9.30865 0.750778 9.12737C0.742771 9.11161 0.734764 9.10372 0.71875 9.08008C0.742771 9.08008 0.758784 9.09584 0.766791 9.10372C1.46339 9.50569 2.15198 9.90766 2.84858 10.3096C3.64927 10.7747 4.44195 11.2397 5.24264 11.7047L5.65099 11.9412C5.667 11.9569 5.667 11.9727 5.667 11.9885V15.7875C5.667 15.8269 5.667 15.8663 5.659 15.8978Z" fill="#8C8C8C"/>
<path d="M0.710938 8.14991V8.14202C0.967158 8.03168 1.21537 7.91345 1.47159 7.80311C1.79987 7.65335 2.12816 7.51148 2.45644 7.36173C2.70465 7.25138 2.96087 7.13316 3.20908 7.02281C3.5774 6.8573 3.93771 6.69966 4.30603 6.53414C4.55424 6.4238 4.80245 6.31345 5.05867 6.19523C5.23483 6.11641 5.41898 6.03759 5.59514 5.95877C5.61115 5.95089 5.63517 5.94301 5.64318 5.92725C5.65118 5.92725 5.65118 5.93513 5.64318 5.94301V10.9479C5.64318 10.9716 5.63517 10.9952 5.65118 11.011C5.63517 11.0346 5.61916 11.011 5.61115 11.0031C5.53909 10.9637 5.46702 10.9243 5.39496 10.877C3.84963 9.97848 2.2963 9.07207 0.750972 8.17355C0.742965 8.16567 0.726951 8.15779 0.710938 8.14991Z" fill="#383838"/>
<path d="M10.5596 9.08008H10.5676C10.5676 9.09584 10.5516 9.11161 10.5436 9.12737C9.07031 11.1687 7.59704 13.218 6.12377 15.2594C5.97164 15.4722 5.8115 15.685 5.65937 15.8978C5.65137 15.8899 5.65137 15.8821 5.65137 15.8742V15.8269V12.0042V11.9333C5.98766 11.7362 6.31594 11.5471 6.65223 11.35C7.94934 10.5934 9.24646 9.84461 10.5356 9.08796C10.5436 9.09584 10.5516 9.08796 10.5596 9.08008Z" fill="#333333"/>
<path d="M5.65078 5.943V5.92724V5.87995V0.157781C5.65078 0.134135 5.64277 0.118372 5.65879 0.0947266C7.28418 2.75088 8.90958 5.39916 10.527 8.05532C10.543 8.07896 10.567 8.11049 10.575 8.14202C10.4629 8.10261 10.3588 8.04744 10.2547 8.00014C10.1266 7.94497 9.99051 7.88192 9.8624 7.82675C9.78233 7.78734 9.69426 7.75581 9.61419 7.7164C9.47807 7.65335 9.34195 7.59818 9.20584 7.53512C9.12577 7.50359 9.0457 7.46418 8.96563 7.42478L8.43717 7.18832C8.3491 7.14891 8.26102 7.1095 8.16494 7.0701L7.78061 6.90458C7.70054 6.87305 7.62047 6.83364 7.5404 6.79423L7.01195 6.55778C6.92387 6.51837 6.8358 6.47896 6.73972 6.43955L6.35538 6.27404C6.26731 6.23463 6.18724 6.19522 6.09916 6.15581C5.94703 6.08487 5.7949 6.01394 5.63477 5.95088C5.65879 5.943 5.65078 5.943 5.65078 5.943Z" fill="#333333"/>
</svg>
